<svg width="27" height="27" viewBox="0 0 27 27" fill="none" xmlns="http://www.w3.org/2000/svg">
<path d="M23.6374 15.9065C24.2245 15.7449 24.5181 15.6642 24.634 15.5097C24.75 15.3552 24.75 15.1067 24.75 14.6098V12.3903C24.75 11.8934 24.75 11.6449 24.634 11.4904C24.518 11.3359 24.2245 11.2552 23.6374 11.0936C21.4432 10.4898 20.0699 8.1493 20.6362 5.92516C20.7919 5.3135 20.8698 5.00767 20.7954 4.8283C20.721 4.64893 20.5077 4.52531 20.0809 4.27809L18.1406 3.15408C17.7219 2.9115 17.5125 2.7902 17.3247 2.81603C17.1367 2.84186 16.9247 3.05766 16.5006 3.48926C14.859 5.16025 12.1428 5.16018 10.5011 3.48915C10.0771 3.05755 9.8651 2.84175 9.67717 2.81592C9.48925 2.79009 9.27987 2.91139 8.8611 3.15397L6.92082 4.27799C6.4941 4.52519 6.28073 4.64879 6.20638 4.82814C6.13201 5.00749 6.20985 5.31335 6.36553 5.92508C6.93154 8.14927 5.55719 10.4899 3.36265 11.0936C2.77551 11.2552 2.48194 11.3359 2.36597 11.4904C2.25 11.6449 2.25 11.8933 2.25 12.3903V14.6098C2.25 15.1067 2.25 15.3552 2.36597 15.5097C2.48192 15.6642 2.7755 15.7449 3.36265 15.9065C5.55683 16.5103 6.93009 18.8508 6.36381 21.075C6.20808 21.6866 6.1302 21.9924 6.20456 22.1718C6.27892 22.3512 6.49228 22.4748 6.91903 22.722L8.85932 23.8461C9.27811 24.0886 9.48751 24.2099 9.67545 24.1841C9.86339 24.1582 10.0754 23.9424 10.4993 23.5108C12.1418 21.8384 14.8599 21.8384 16.5025 23.5107C16.9264 23.9424 17.1384 24.1581 17.3264 24.184C17.5142 24.2098 17.7237 24.0885 18.1424 23.8459L20.0827 22.7218C20.5095 22.4747 20.7229 22.351 20.7972 22.1716C20.8716 21.9923 20.7937 21.6864 20.6379 21.0748C20.0714 18.8508 21.4435 16.5103 23.6374 15.9065Z" fill="#3E4CC1" stroke="#3E4CC1" stroke-width="1.6875" stroke-linecap="round" stroke-linejoin="round"/>
<path d="M14.0625 9L11.25 13.5H15.75L12.9375 18" stroke="white" stroke-width="1.6875" stroke-linecap="round" stroke-linejoin="round"/>
</svg>
