<svg width="20" height="20" viewBox="0 0 20 20" fill="none" xmlns="http://www.w3.org/2000/svg">
<path fill-rule="evenodd" clip-rule="evenodd" d="M16.9623 1.01326L16.8428 0H14.0484L13.9286 1.01262L13.854 1.63998L13.7073 1.73543L13.5758 1.83293L13.0816 1.59627L12.2851 1.21512L11.855 2.09842L11.3204 3.19653L10.8895 4.08135L11.5667 4.71182L11.985 5.10118L11.9837 5.1194C11.9812 5.17758 11.98 5.23582 11.9799 5.29407L11.9837 5.46733L11.986 5.49176L11.5668 5.88253L10.8892 6.51294L11.3202 7.398L11.8551 8.49669L12.2851 9.37987L13.0816 8.99889L13.5748 8.76235L13.712 8.86431L13.854 8.9553L13.9273 9.57505L14.0468 10.5882H16.841L16.9609 9.57563L17.0346 8.94704L17.1822 8.85282L17.3128 8.75409L17.8079 8.99186L18.6045 9.37302L19.0345 8.48972L19.5692 7.39167L20 6.50684L19.3229 5.87637L18.9046 5.48702L18.9057 5.46879C18.9083 5.40981 18.9095 5.35157 18.9095 5.29407L18.9058 5.12086L18.9036 5.09409L19.323 4.70502L20 4.07455L19.5692 3.18979L19.0344 2.09145L18.6044 1.20832L17.808 1.5893L17.3138 1.82467L17.1775 1.72383L17.0346 1.63172L16.9623 1.01326ZM15.5419 7.64702C16.6354 7.64702 17.5218 6.59356 17.5218 5.29407C17.5218 3.99457 16.6354 2.94117 15.5419 2.94117C14.4484 2.94117 13.5621 3.99457 13.5621 5.29407C13.5621 6.59356 14.4484 7.64702 15.5419 7.64702ZM6.07297 10.4251L5.95354 9.41175H3.15917L3.03932 10.4243L2.96469 11.0517L2.81802 11.1472L2.68651 11.2447L2.19229 11.0081L1.39578 10.6269L0.965729 11.5102L0.431042 12.6083L0.000208219 13.4932L0.677292 14.1236L1.09568 14.5129L1.09448 14.5311C1.09199 14.5893 1.09072 14.6476 1.09068 14.7059L1.09438 14.879L1.09672 14.9035L0.677448 15.2943L0 15.9247L0.430886 16.8097L0.965781 17.9084L1.39578 18.7916L2.19224 18.4107L2.68552 18.1741L2.82271 18.2761L2.96469 18.367L3.03813 18.9868L3.1576 20H5.95177L6.07161 18.9874L6.14536 18.3588L6.29292 18.2646L6.42354 18.1659L6.91865 18.4036L7.71516 18.7848L8.14521 17.9015L8.6799 16.8034L9.11073 15.9186L8.43359 15.2881L8.01536 14.8988L8.01646 14.8806C8.01896 14.8215 8.02023 14.7633 8.02026 14.7059L8.01656 14.5327L8.01437 14.5059L8.4337 14.1168L9.11073 13.4864L8.6799 12.6017L8.14516 11.5033L7.71516 10.6201L6.9187 11.001L6.42453 11.2365L6.28823 11.1356L6.14536 11.0435L6.07297 10.4251ZM4.65266 17.0588C5.74609 17.0588 6.6325 16.0054 6.6325 14.7059C6.6325 13.4063 5.74609 12.3529 4.65266 12.3529C3.55917 12.3529 2.67276 13.4063 2.67276 14.7059C2.67276 16.0054 3.55917 17.0588 4.65266 17.0588ZM20 17.5H10V20H20V17.5ZM0 0H10V2.49996H0V0ZM10 7.49995H7.77776V9.99997H10V7.49995Z" fill="#FF0001"/>
</svg>
