<svg width="27" height="27" viewBox="0 0 27 27" fill="none" xmlns="http://www.w3.org/2000/svg">
<path d="M4.5 3.375H22.5" stroke="#FFCA34" stroke-width="1.5" stroke-linecap="round" stroke-linejoin="round"/>
<path d="M6.1875 3.375V5.65919C6.1875 7.0563 6.83642 8.37416 7.94381 9.226L13.5 13.5L19.0562 9.226C20.1636 8.37417 20.8125 7.0563 20.8125 5.65919V3.375" fill="#FFCA34"/>
<path d="M6.1875 3.375V5.65919C6.1875 7.0563 6.83642 8.37416 7.94381 9.226L13.5 13.5L19.0562 9.226C20.1636 8.37417 20.8125 7.0563 20.8125 5.65919V3.375" stroke="#FFCA34" stroke-width="1.5" stroke-linecap="round" stroke-linejoin="round"/>
<path d="M6.1875 23.625V21.3408C6.1875 19.9437 6.83642 18.6258 7.94381 17.774L13.5 13.5L19.0562 17.774C20.1636 18.6258 20.8125 19.9437 20.8125 21.3408V23.625" fill="white"/>
<path d="M6.1875 23.625V21.3408C6.1875 19.9437 6.83642 18.6258 7.94381 17.774L13.5 13.5L19.0562 17.774C20.1636 18.6258 20.8125 19.9437 20.8125 21.3408V23.625" stroke="#FFCA34" stroke-width="1.5" stroke-linecap="round" stroke-linejoin="round"/>
<path d="M4.5 23.625H22.5" stroke="#FFCA34" stroke-width="1.5" stroke-linecap="round" stroke-linejoin="round"/>
</svg>
