<svg width="14" height="14" viewBox="0 0 14 14" fill="none" xmlns="http://www.w3.org/2000/svg">
<path d="M0 7C0 10.8661 3.1339 14 7 14C10.8661 14 14 10.8661 14 7C14 3.1339 10.8661 0 7 0C3.1339 0 0 3.1339 0 7ZM12.6 7C12.6 8.48521 12.01 9.90959 10.9598 10.9598C9.90959 12.01 8.48521 12.6 7 12.6C5.51479 12.6 4.09041 12.01 3.0402 10.9598C1.99 9.90959 1.4 8.48521 1.4 7C1.4 5.51479 1.99 4.09041 3.0402 3.0402C4.09041 1.99 5.51479 1.4 7 1.4C8.48521 1.4 9.90959 1.99 10.9598 3.0402C12.01 4.09041 12.6 5.51479 12.6 7ZM11.2 7C11.1999 7.69066 11.0295 8.37064 10.7039 8.97971C10.3783 9.58879 9.90744 10.1082 9.33316 10.4918C8.75887 10.8755 8.09883 11.1116 7.41149 11.1793C6.72416 11.247 6.03074 11.1441 5.39266 10.8798C4.75458 10.6154 4.19153 10.1979 3.75338 9.66397C3.31522 9.13009 3.01549 8.4964 2.88073 7.81901C2.74597 7.14163 2.78033 6.44147 2.98078 5.78054C3.18123 5.11961 3.54157 4.51831 4.0299 4.0299L7 7V2.8C8.11391 2.8 9.1822 3.2425 9.96985 4.03015C10.7575 4.8178 11.2 5.88609 11.2 7Z" fill="#F79329"/>
</svg>
