<svg width="24" height="24" viewBox="0 0 24 24" fill="none" xmlns="http://www.w3.org/2000/svg">
<g clip-path="url(#clip0_2241_713)">
<path fill-rule="evenodd" clip-rule="evenodd" d="M1.46403 11.49C1.59404 11.5086 1.72644 11.5014 1.85366 11.4688C1.98089 11.4362 2.10045 11.3789 2.20552 11.3001C2.31059 11.2213 2.39912 11.1226 2.46603 11.0096C2.53295 10.8966 2.57695 10.7715 2.59553 10.6415C3.25403 6.0385 7.21403 2.5 11.9995 2.5C16.785 2.5 20.7445 6.0385 21.403 10.6415C21.4406 10.9041 21.5809 11.141 21.793 11.3001C22.0052 11.4592 22.272 11.5275 22.5345 11.49C22.7971 11.4525 23.034 11.3122 23.1931 11.1C23.3522 10.8878 23.4206 10.6211 23.383 10.3585C22.5855 4.7845 17.7935 0.5 11.999 0.5C6.20553 0.5 1.41353 4.7845 0.616028 10.3585C0.597438 10.4885 0.604639 10.6209 0.63722 10.7481C0.669801 10.8754 0.727125 10.9949 0.805916 11.1C0.884708 11.2051 0.983425 11.2936 1.09643 11.3605C1.20944 11.4274 1.33452 11.4714 1.46453 11.49H1.46403ZM1.46403 12.51C1.59404 12.4914 1.72644 12.4986 1.85366 12.5312C1.98089 12.5638 2.10045 12.6211 2.20552 12.6999C2.31059 12.7787 2.39912 12.8774 2.46603 12.9904C2.53295 13.1034 2.57695 13.2285 2.59553 13.3585C2.70353 14.114 2.90053 14.8405 3.17553 15.527C3.27406 15.7733 3.27072 16.0486 3.16627 16.2924C3.06181 16.5362 2.86478 16.7285 2.61853 16.827C2.4966 16.8758 2.36625 16.9001 2.23493 16.8985C2.10361 16.8969 1.97389 16.8695 1.85317 16.8177C1.60937 16.7133 1.41706 16.5163 1.31853 16.27C0.981005 15.4247 0.74502 14.5424 0.615528 13.6415C0.596942 13.5115 0.604161 13.379 0.636774 13.2518C0.669386 13.1245 0.726753 13.0049 0.805596 12.8998C0.884439 12.7948 0.983213 12.7063 1.09628 12.6394C1.20934 12.5725 1.33447 12.5285 1.46453 12.51H1.46403ZM22.5345 12.51C22.6646 12.5286 22.7897 12.5726 22.9028 12.6395C23.0158 12.7065 23.1145 12.7951 23.1933 12.9002C23.2721 13.0053 23.3294 13.1249 23.362 13.2522C23.3945 13.3795 23.4017 13.512 23.383 13.642C23.2535 14.5427 23.0175 15.4249 22.68 16.27C22.5782 16.5114 22.3857 16.7032 22.1439 16.8042C21.9021 16.9051 21.6303 16.9072 21.3871 16.8098C21.1438 16.7124 20.9485 16.5235 20.8431 16.2836C20.7377 16.0437 20.7307 15.772 20.8235 15.527C21.0985 14.8405 21.295 14.114 21.403 13.3585C21.4216 13.2285 21.4656 13.1034 21.5325 12.9904C21.5994 12.8774 21.688 12.7787 21.793 12.6999C21.8981 12.6211 22.0177 12.5638 22.1449 12.5312C22.2721 12.4986 22.4045 12.4914 22.5345 12.51ZM3.12053 17.696C3.2238 17.6148 3.34206 17.5548 3.46854 17.5193C3.59502 17.4838 3.72726 17.4736 3.85769 17.4893C3.98812 17.5049 4.11419 17.5461 4.22869 17.6105C4.34319 17.6749 4.44389 17.7612 4.52503 17.8645C4.99219 18.4599 5.52882 18.9974 6.12353 19.4655C6.22665 19.5468 6.31274 19.6477 6.37689 19.7623C6.44104 19.8768 6.48199 20.0029 6.49741 20.1334C6.51282 20.2638 6.5024 20.396 6.46673 20.5224C6.43106 20.6488 6.37085 20.7669 6.28953 20.87C6.20821 20.9731 6.10737 21.0592 5.99278 21.1234C5.87818 21.1875 5.75208 21.2285 5.62166 21.2439C5.49124 21.2593 5.35906 21.2489 5.23267 21.2132C5.10628 21.1775 4.98815 21.1173 4.88503 21.036C4.16616 20.47 3.51741 19.8202 2.95253 19.1005C2.87131 18.9973 2.81123 18.879 2.77572 18.7526C2.74021 18.6261 2.72996 18.4939 2.74556 18.3634C2.76116 18.233 2.80231 18.1069 2.86664 17.9924C2.93098 17.8779 3.01725 17.7772 3.12053 17.696ZM20.878 17.696C20.9813 17.7771 21.0677 17.8778 21.132 17.9923C21.1964 18.1068 21.2376 18.2329 21.2533 18.3633C21.2689 18.4938 21.2587 18.626 21.2232 18.7525C21.1878 18.879 21.1277 18.9972 21.0465 19.1005C20.4777 19.8252 19.8238 20.4788 19.099 21.0475C18.996 21.1308 18.8774 21.1928 18.7502 21.2299C18.623 21.267 18.4897 21.2785 18.3581 21.2636C18.2264 21.2487 18.099 21.2078 17.9833 21.1433C17.8676 21.0788 17.7658 20.9919 17.6839 20.8877C17.6021 20.7835 17.5417 20.6641 17.5064 20.5364C17.4711 20.4087 17.4615 20.2752 17.4783 20.1438C17.495 20.0124 17.5376 19.8855 17.6038 19.7707C17.6699 19.6559 17.7582 19.5554 17.8635 19.475C18.4628 19.0048 19.0033 18.4643 19.4735 17.865C19.5546 17.7617 19.6553 17.6753 19.7698 17.6109C19.8843 17.5464 20.0103 17.5052 20.1408 17.4895C20.2712 17.4738 20.4034 17.484 20.5299 17.5194C20.6564 17.5548 20.7747 17.6148 20.878 17.696ZM7.15703 21.373C7.20599 21.2511 7.27849 21.1401 7.37038 21.0462C7.46227 20.9524 7.57174 20.8775 7.69256 20.826C7.81337 20.7745 7.94316 20.7472 8.0745 20.7459C8.20584 20.7445 8.33616 20.769 8.45803 20.818C9.14903 21.096 9.88003 21.295 10.641 21.404C10.771 21.4226 10.8961 21.4667 11.0091 21.5336C11.1221 21.6006 11.2208 21.6891 11.2995 21.7942C11.3783 21.8993 11.4356 22.0189 11.4682 22.1461C11.5007 22.2733 11.5079 22.4057 11.4893 22.5357C11.4707 22.6658 11.4266 22.7908 11.3597 22.9038C11.2927 23.0168 11.2042 23.1155 11.0991 23.1943C10.994 23.273 10.8744 23.3303 10.7472 23.3629C10.6199 23.3954 10.4875 23.4026 10.3575 23.384C9.45056 23.2536 8.56243 23.0152 7.71203 22.674C7.59015 22.625 7.47911 22.5525 7.38525 22.4606C7.2914 22.3688 7.21656 22.2593 7.16502 22.1385C7.11348 22.0177 7.08625 21.8879 7.08488 21.7565C7.08351 21.6252 7.10802 21.4949 7.15703 21.373ZM16.827 21.381C16.8758 21.5029 16.9001 21.6333 16.8985 21.7646C16.897 21.8959 16.8695 22.0257 16.8178 22.1464C16.7661 22.2671 16.6911 22.3764 16.5971 22.4682C16.5031 22.5599 16.392 22.6322 16.27 22.681C15.4246 23.0184 14.5421 23.2542 13.641 23.3835C13.511 23.4021 13.3786 23.3949 13.2514 23.3624C13.1241 23.3298 13.0046 23.2725 12.8995 23.1938C12.7944 23.115 12.7058 23.0163 12.6389 22.9033C12.5719 22.7903 12.5279 22.6653 12.5093 22.5352C12.4907 22.4052 12.4978 22.2728 12.5304 22.1456C12.5629 22.0184 12.6202 21.8988 12.699 21.7937C12.7778 21.6886 12.8765 21.6001 12.9895 21.5331C13.1024 21.4662 13.2275 21.4221 13.3575 21.4035C14.1009 21.2966 14.829 21.1019 15.5265 20.8235C15.6485 20.7747 15.7789 20.7504 15.9102 20.7521C16.0416 20.7537 16.1713 20.7812 16.292 20.8329C16.4127 20.8847 16.5221 20.9598 16.6138 21.0538C16.7055 21.1478 16.7783 21.259 16.827 21.381Z" fill="#8FBFFA"/>
<path d="M12.1461 5.03693C13.1396 4.16293 14.6226 4.94893 14.5331 6.23343C14.4435 7.54778 14.326 8.86007 14.1806 10.1694C15.3471 10.3229 16.3171 10.4894 17.0501 10.6314C18.1621 10.8464 18.5741 12.1519 17.8301 12.9804C16.5681 14.3854 14.3061 16.8054 11.8531 18.9634C10.8591 19.8374 9.37659 19.0514 9.46609 17.7664C9.57409 16.2084 9.69859 14.8984 9.81859 13.8309C8.85753 13.7056 7.90043 13.5516 6.94859 13.3689C5.83659 13.1539 5.42509 11.8484 6.16909 11.0194C7.43059 9.61493 9.69309 7.19443 12.1461 5.03693Z" fill="#2859C5"/>
</g>
<defs>
<clipPath id="clip0_2241_713">
<rect width="24" height="24" fill="white"/>
</clipPath>
</defs>
</svg>
