<svg width="12" height="12" viewBox="0 0 12 12" fill="none" xmlns="http://www.w3.org/2000/svg">
<g clip-path="url(#clip0_2241_691)">
<path d="M10.8775 11.053C10.8691 10.9715 10.8363 10.8815 10.78 10.7783C10.6806 10.593 10.5652 10.4167 10.435 10.2515C9.67004 9.28022 8.32567 8.88272 7.13692 9.12365C6.74598 9.20334 6.37754 9.34678 5.99692 9.46209C5.50192 9.61209 5.03411 9.75365 4.56911 9.81553C3.77223 9.9224 3.11598 9.8174 2.74473 9.45928C1.92067 8.66428 2.81504 7.57584 3.84723 7.4099C4.69567 7.27397 5.02567 7.34147 5.92004 7.51584C6.43286 7.61522 7.07129 7.7399 7.91036 7.82897C10.6507 8.12147 11.6969 7.16709 11.9557 5.16647C12.055 4.39115 11.8816 3.73115 11.4541 3.25678C10.9863 2.73928 10.2654 2.48897 9.31004 2.51334C9.20411 2.51615 7.13692 2.53584 7.13692 2.53584V3.65053C7.13692 3.65053 9.23973 3.58772 9.33817 3.5849C9.76942 3.57365 10.3488 3.63272 10.6582 3.9749C10.9254 4.27115 10.9329 4.71178 10.8925 5.02865C10.6544 6.90647 9.26973 6.89334 8.02567 6.76115C7.23254 6.67678 6.64567 6.5624 6.12629 6.46209C5.16067 6.27459 4.46223 6.13865 3.40004 6.39553C2.04817 6.72272 1.12567 7.8599 1.25411 9.04115C1.30942 9.5474 1.56348 9.99084 1.98817 10.3227C2.63598 10.8299 3.60348 11.0277 4.71348 10.8787C5.26379 10.8046 5.79442 10.6443 6.30817 10.4877C6.74129 10.3565 7.17536 10.153 7.63286 10.1287C8.14192 10.1015 8.66223 10.2065 9.08317 10.4746C9.49379 10.7362 9.78911 11.1946 9.95973 11.4815C10.0675 11.6624 10.4566 11.6165 10.6422 11.4824C10.8766 11.3137 10.885 11.1243 10.8775 11.053Z" fill="#F79329"/>
<mask id="mask0_2241_691" style="mask-type:luminance" maskUnits="userSpaceOnUse" x="1" y="2" width="11" height="10">
<path d="M10.8775 11.053C10.8691 10.9715 10.8363 10.8815 10.78 10.7783C10.6806 10.593 10.5652 10.4167 10.435 10.2515C9.67004 9.28022 8.32567 8.88272 7.13692 9.12365C6.74598 9.20334 6.37754 9.34678 5.99692 9.46209C5.50192 9.61209 5.03411 9.75365 4.56911 9.81553C3.77223 9.9224 3.11598 9.8174 2.74473 9.45928C1.92067 8.66428 2.81504 7.57584 3.84723 7.4099C4.69567 7.27397 5.02567 7.34147 5.92004 7.51584C6.43286 7.61522 7.07129 7.7399 7.91036 7.82897C10.6507 8.12147 11.6969 7.16709 11.9557 5.16647C12.055 4.39115 11.8816 3.73115 11.4541 3.25678C10.9863 2.73928 10.2654 2.48897 9.31004 2.51334C9.20411 2.51615 7.13692 2.53584 7.13692 2.53584V3.65053C7.13692 3.65053 9.23973 3.58772 9.33817 3.5849C9.76942 3.57365 10.3488 3.63272 10.6582 3.9749C10.9254 4.27115 10.9329 4.71178 10.8925 5.02865C10.6544 6.90647 9.26973 6.89334 8.02567 6.76115C7.23254 6.67678 6.64567 6.5624 6.12629 6.46209C5.16067 6.27459 4.46223 6.13865 3.40004 6.39553C2.04817 6.72272 1.12567 7.8599 1.25411 9.04115C1.30942 9.5474 1.56348 9.99084 1.98817 10.3227C2.63598 10.8299 3.60348 11.0277 4.71348 10.8787C5.26379 10.8046 5.79442 10.6443 6.30817 10.4877C6.74129 10.3565 7.17536 10.153 7.63286 10.1287C8.14192 10.1015 8.66223 10.2065 9.08317 10.4746C9.49379 10.7362 9.78911 11.1946 9.95973 11.4815C10.0675 11.6624 10.4566 11.6165 10.6422 11.4824C10.8766 11.3137 10.885 11.1243 10.8775 11.053Z" fill="white"/>
</mask>
<g mask="url(#mask0_2241_691)">
<path d="M4.05406 0.399414C4.05406 0.399414 4.22844 0.805351 4.14594 1.1316C4.09531 1.33223 4.08406 1.53941 4.07094 1.74566C4.01562 2.61098 3.995 3.49785 4.02406 4.3641C4.03719 4.76066 3.875 5.37285 3.875 5.37285L4.05406 5.74879C4.05406 5.74879 5.15844 5.7366 5.34406 5.72348C6.42313 5.6466 7.15719 5.3691 7.57719 4.27879C7.59031 4.26098 7.60531 4.2441 7.62875 4.23004C7.84906 4.09035 8.28125 4.22723 8.48938 4.05191C8.72375 3.85504 8.71344 3.39191 8.72563 3.22879C8.74625 2.94848 8.71344 2.63535 8.59062 2.37191C8.54187 2.26691 8.4575 2.13473 8.34219 2.0991C8.16594 2.04379 8.04688 2.07473 7.86594 2.04191C7.80219 2.03066 7.74031 2.01004 7.69344 1.96035C7.65406 1.9191 7.51531 1.66691 7.475 1.57598C7.35313 1.30504 7.14781 0.958164 6.59375 0.739727C5.83813 0.442539 4.05406 0.399414 4.05406 0.399414Z" fill="#ED6C30"/>
</g>
<path d="M3.42906 0.399414C3.42906 0.399414 3.60344 0.805351 3.52094 1.1316C3.47031 1.33223 3.45813 1.53941 3.44594 1.74566C3.39063 2.61098 3.37 3.49785 3.39906 4.3641C3.41219 4.76066 3.25 5.37285 3.25 5.37285L3.42906 5.74879C3.42906 5.74879 4.53438 5.7366 4.71813 5.72348C5.79719 5.6466 6.53219 5.3691 6.95219 4.27879C6.96531 4.26098 6.98125 4.2441 7.00375 4.23004C7.22406 4.09035 7.65625 4.22723 7.86438 4.05191C8.09875 3.85504 8.08844 3.39191 8.10063 3.22879C8.12219 2.94848 8.08844 2.63535 7.96563 2.37191C7.91688 2.26691 7.8325 2.13473 7.71813 2.0991C7.54188 2.04379 7.42188 2.07473 7.24188 2.04191C7.17719 2.03066 7.11531 2.01004 7.06844 1.96035C7.02906 1.9191 6.89031 1.66691 6.85 1.57598C6.72906 1.30504 6.52281 0.958164 5.96875 0.739727C5.21313 0.442539 3.42906 0.399414 3.42906 0.399414Z" fill="#FCC21B"/>
<path d="M3.42914 0.399414H2.33789C1.96289 0.399414 1.6582 0.704102 1.6582 1.0791V5.0691C1.6582 5.4441 1.96289 5.74879 2.33789 5.74879H3.42914C3.80414 5.74879 4.10883 5.4441 4.10883 5.0691V1.0791C4.10883 0.704102 3.80414 0.399414 3.42914 0.399414Z" fill="#FCC21B"/>
<path d="M3.73289 5.06914C3.73289 5.23602 3.59602 5.37289 3.4282 5.37289H2.33695C2.17008 5.37289 2.0332 5.23602 2.0332 5.06914V1.07914C2.0332 0.912266 2.17008 0.775391 2.33695 0.775391H3.4282C3.59508 0.775391 3.73289 0.912266 3.73289 1.07914V5.06914Z" fill="white"/>
<path d="M0.199453 1.62207C0.0991406 1.62207 0.0175781 1.70457 0.0175781 1.80488V2.05707C0.0175781 2.15738 0.100078 2.23895 0.199453 2.23895H3.37758V1.62207H0.199453Z" fill="#78A3AD"/>
<path d="M0.199453 3.84375C0.0991406 3.84375 0.0175781 3.92625 0.0175781 4.02656V4.27875C0.0175781 4.37906 0.100078 4.46063 0.199453 4.46063H3.37758V3.84375H0.199453Z" fill="#78A3AD"/>
</g>
<defs>
<clipPath id="clip0_2241_691">
<rect width="12" height="12" fill="white"/>
</clipPath>
</defs>
</svg>
