<svg width="9" height="17" viewBox="0 0 9 17" fill="none" xmlns="http://www.w3.org/2000/svg">
<path d="M6.89453 9.54926H8.50047M6.89453 6.05624H8.50047M6.89453 2.5625H8.50047" stroke="#444444" stroke-linecap="round" stroke-linejoin="round"/>
<path d="M5.29734 11.3096V1.89161C5.29734 1.52253 5.1288 1.16857 4.82881 0.907592C4.52881 0.646615 4.12193 0.5 3.69767 0.5C3.27341 0.5 2.86653 0.646615 2.56653 0.907592C2.26653 1.16857 2.098 1.52253 2.098 1.89161V11.3096C1.48857 11.6159 1.01233 12.0886 0.743132 12.6543C0.473934 13.22 0.426816 13.8472 0.609084 14.4386C0.791352 15.03 1.19282 15.5526 1.75124 15.9253C2.30966 16.298 2.99383 16.5 3.69767 16.5C4.4015 16.5 5.08567 16.298 5.64409 15.9253C6.20251 15.5526 6.60398 15.03 6.78625 14.4386C6.96852 13.8472 6.9214 13.22 6.6522 12.6543C6.38301 12.0886 5.90677 11.6159 5.29734 11.3096Z" fill="#FB0D46"/>
<path d="M3.69764 14.411C3.90961 14.411 4.11289 14.3378 4.26277 14.2074C4.41265 14.077 4.49685 13.9002 4.49685 13.7158C4.49685 13.5314 4.41265 13.3545 4.26277 13.2241C4.11289 13.0938 3.90961 13.0205 3.69764 13.0205C3.48568 13.0205 3.2824 13.0938 3.13252 13.2241C2.98264 13.3545 2.89844 13.5314 2.89844 13.7158C2.89844 13.9002 2.98264 14.077 3.13252 14.2074C3.2824 14.3378 3.48568 14.411 3.69764 14.411Z" fill="#FFEF5E" stroke="#444444" stroke-linecap="round" stroke-linejoin="round"/>
<path d="M3.69886 0.500002C3.48882 0.499715 3.28078 0.53548 3.08666 0.605249C2.89253 0.675019 2.71614 0.777421 2.56758 0.90659C2.41902 1.03576 2.30122 1.18916 2.22091 1.358C2.14061 1.52683 2.09939 1.7078 2.09961 1.89052V5.52535H5.29728V1.89124C5.29761 1.70865 5.25655 1.52778 5.17645 1.359C5.09636 1.19022 4.97879 1.03684 4.83049 0.907619C4.68219 0.778402 4.50605 0.675889 4.31216 0.605946C4.11827 0.536003 3.91043 0.500001 3.70053 0.500002H3.69886Z" fill="white"/>
<path d="M3.69809 13.0194V2.58686M5.29734 11.3096V1.89161C5.29734 1.52253 5.1288 1.16857 4.82881 0.907592C4.52881 0.646615 4.12193 0.5 3.69767 0.5C3.27341 0.5 2.86653 0.646615 2.56653 0.907592C2.26653 1.16857 2.098 1.52253 2.098 1.89161V11.3096C1.48857 11.6159 1.01233 12.0886 0.743132 12.6543C0.473934 13.22 0.426816 13.8472 0.609084 14.4386C0.791352 15.03 1.19282 15.5526 1.75124 15.9253C2.30966 16.298 2.99383 16.5 3.69767 16.5C4.4015 16.5 5.08567 16.298 5.64409 15.9253C6.20251 15.5526 6.60398 15.03 6.78625 14.4386C6.96852 13.8472 6.9214 13.22 6.6522 12.6543C6.38301 12.0886 5.90677 11.6159 5.29734 11.3096Z" stroke="#444444" stroke-linecap="round" stroke-linejoin="round"/>
</svg>
