<svg width="22" height="22" viewBox="0 0 22 22" fill="none" xmlns="http://www.w3.org/2000/svg">
<rect width="22" height="22" rx="11" fill="#5E90F9"/>
<path d="M10.576 6C10.5516 6.00007 10.5272 6.00213 10.5031 6.00615C9.17595 6.22405 7.9831 6.8872 7.15421 7.86792C6.32531 8.84864 5.91897 10.0776 6.01343 11.3182C6.10788 12.5587 6.69645 13.7232 7.66582 14.5874C8.63518 15.4516 9.9168 15.9544 11.2639 15.999C11.3323 16.0013 11.4007 15.999 11.4682 15.999C12.3433 15.9996 13.2056 15.8057 13.9823 15.4338C14.7589 15.0619 15.4271 14.5229 15.9302 13.8624C15.971 13.8055 15.9948 13.7397 15.9992 13.6716C16.0037 13.6034 15.9886 13.5355 15.9555 13.4744C15.9224 13.4134 15.8725 13.3615 15.8107 13.324C15.749 13.2864 15.6776 13.2645 15.6038 13.2605C14.771 13.193 13.9661 12.9498 13.2514 12.5496C12.5366 12.1494 11.9312 11.603 11.4819 10.9525C11.0326 10.302 10.7515 9.56497 10.6602 8.79825C10.5689 8.03154 10.6699 7.25573 10.9554 6.53078C10.9797 6.47275 10.9886 6.41021 10.9814 6.34836C10.9742 6.28651 10.9511 6.22715 10.9139 6.17522C10.8768 6.12329 10.8268 6.0803 10.768 6.04982C10.7092 6.01934 10.6434 6.00226 10.576 6Z" fill="white"/>
</svg>
