<svg width="27" height="27" viewBox="0 0 27 27" fill="none" xmlns="http://www.w3.org/2000/svg">
<path d="M17.3806 23.625H10.8061C6.77274 23.625 4.75604 23.625 3.50301 22.3481C2.25 21.0714 2.25 19.0163 2.25 14.9062C2.25 10.7962 2.25 8.74116 3.50301 7.46433C4.75604 6.1875 6.77274 6.1875 10.8061 6.1875H15.0842C19.1176 6.1875 21.1344 6.1875 22.3874 7.46433C23.3514 8.44671 23.5 11 23.5 16.5" fill="#FB0D46"/>
<path d="M17.3806 23.625H10.8061C6.77274 23.625 4.75604 23.625 3.50301 22.3481C2.25 21.0714 2.25 19.0163 2.25 14.9062C2.25 10.7962 2.25 8.74116 3.50301 7.46433C4.75604 6.1875 6.77274 6.1875 10.8061 6.1875H15.0842C19.1176 6.1875 21.1344 6.1875 22.3874 7.46433C23.3514 8.44671 23.5 11 23.5 16.5" stroke="#FB0D46" stroke-width="1.5" stroke-linecap="round" stroke-linejoin="round"/>
<path d="M24.75 19.6875C24.75 22.4835 22.4835 24.75 19.6875 24.75C16.8915 24.75 14.625 22.4835 14.625 19.6875C14.625 16.8915 16.8915 14.625 19.6875 14.625C22.4835 14.625 24.75 16.8915 24.75 19.6875Z" fill="#FB0D46" stroke="white" stroke-width="1.5" stroke-linecap="round" stroke-linejoin="round"/>
<path d="M19.6875 21.9654H19.6966M19.6974 19.6873V17.4092" stroke="white" stroke-width="1.5" stroke-linecap="round" stroke-linejoin="round"/>
<path d="M18 6.1875L17.8883 5.83981C17.3313 4.10725 17.0529 3.24098 16.39 2.74548C15.7271 2.25 14.8466 2.25 13.0856 2.25H12.7894C11.0284 2.25 10.1479 2.25 9.485 2.74548C8.82209 3.24098 8.54365 4.10725 7.98676 5.83981L7.875 6.1875" fill="white"/>
<path d="M18 6.1875L17.8883 5.83981C17.3313 4.10725 17.0529 3.24098 16.39 2.74548C15.7271 2.25 14.8466 2.25 13.0856 2.25H12.7894C11.0284 2.25 10.1479 2.25 9.485 2.74548C8.82209 3.24098 8.54365 4.10725 7.98676 5.83981L7.875 6.1875" stroke="#FB0D46" stroke-width="1.5" stroke-linecap="round" stroke-linejoin="round"/>
</svg>
