<svg width="36" height="36" viewBox="0 0 36 36" fill="none" xmlns="http://www.w3.org/2000/svg">
<rect width="36" height="36" rx="6" fill="#A4C2FF"/>
<path d="M8 18C8 15.1716 8 13.7574 8.87868 12.8787C9.75736 12 11.1716 12 14 12H19C21.8284 12 23.2426 12 24.1213 12.8787C25 13.7574 25 15.1716 25 18C25 20.8284 25 22.2426 24.1213 23.1213C23.2426 24 21.8284 24 19 24H14C11.1716 24 9.75736 24 8.87868 23.1213C8 22.2426 8 20.8284 8 18Z" stroke="#2E388E" stroke-width="1.5" stroke-linecap="round"/>
<path d="M16.2188 16L15.0571 17.4499C14.9327 17.6053 15.0219 17.8289 15.2249 17.8702L16.4418 18.1182C16.6582 18.1623 16.7407 18.4098 16.5895 18.5609L15.1481 20" stroke="#2E388E" stroke-linecap="round"/>
<path d="M25 15.5L26.0272 15.6712C26.7085 15.7847 27.0491 15.8415 27.3076 16.0067C27.5618 16.1691 27.7612 16.4044 27.8796 16.6819C28 16.964 28 17.3093 28 18C28 18.6907 28 19.036 27.8796 19.3181C27.7612 19.5956 27.5618 19.8309 27.3076 19.9933C27.0491 20.1585 26.7085 20.2153 26.0272 20.3288L25 20.5" stroke="#2E388E" stroke-width="1.5" stroke-linecap="round"/>
<g clip-path="url(#clip0_2241_1385)">
<path d="M18.0736 21.125C19.084 20.4532 19.75 19.3044 19.75 18C19.75 15.9289 18.0711 14.25 16 14.25C15.7136 14.25 15.4347 14.2821 15.1667 14.3429M18.0736 21.125V19.6667M18.0736 21.125H19.5417M13.9167 14.8815C12.9117 15.5542 12.25 16.6998 12.25 18C12.25 20.0711 13.9289 21.75 16 21.75C16.2864 21.75 16.5653 21.7179 16.8333 21.6571M13.9167 14.8815V16.3333M13.9167 14.8815H12.4583" stroke="#2E388E" stroke-linecap="round" stroke-linejoin="round"/>
</g>
<defs>
<clipPath id="clip0_2241_1385">
<rect width="10" height="10" fill="white" transform="translate(11 13)"/>
</clipPath>
</defs>
</svg>
