<svg width="23" height="23" viewBox="0 0 23 23" fill="none" xmlns="http://www.w3.org/2000/svg">
<path fill-rule="evenodd" clip-rule="evenodd" d="M0.858559 10.99C0.988569 11.0086 1.12097 11.0014 1.24819 10.9688C1.37542 10.9362 1.49498 10.8789 1.60005 10.8001C1.70513 10.7213 1.79365 10.6226 1.86056 10.5096C1.92748 10.3966 1.97148 10.2715 1.99006 10.1415C2.64856 5.5385 6.60856 2 11.3941 2C16.1796 2 20.1391 5.5385 20.7976 10.1415C20.8351 10.4041 20.9754 10.641 21.1876 10.8001C21.3998 10.9592 21.6665 11.0275 21.9291 10.99C22.1916 10.9525 22.4285 10.8122 22.5877 10.6C22.7468 10.3878 22.8151 10.1211 22.7776 9.8585C21.9801 4.2845 17.1881 0 11.3936 0C5.60006 0 0.808059 4.2845 0.0105592 9.8585C-0.0080311 9.98851 -0.000830032 10.1209 0.0317512 10.2481C0.0643325 10.3754 0.121656 10.4949 0.200448 10.6C0.27924 10.7051 0.377957 10.7936 0.490962 10.8605C0.603967 10.9274 0.729047 10.9714 0.859059 10.99H0.858559ZM0.858559 12.01C0.988569 11.9914 1.12097 11.9986 1.24819 12.0312C1.37542 12.0638 1.49498 12.1211 1.60005 12.1999C1.70513 12.2787 1.79365 12.3774 1.86056 12.4904C1.92748 12.6034 1.97148 12.7285 1.99006 12.8585C2.09806 13.614 2.29506 14.3405 2.57006 15.027C2.66859 15.2733 2.66526 15.5486 2.5608 15.7924C2.45634 16.0362 2.25931 16.2285 2.01306 16.327C1.89113 16.3758 1.76078 16.4001 1.62946 16.3985C1.49814 16.3969 1.36842 16.3695 1.2477 16.3177C1.0039 16.2133 0.811587 16.0163 0.713059 15.77C0.375536 14.9247 0.139552 14.0424 0.0100592 13.1415C-0.008527 13.0115 -0.00130752 12.879 0.0313051 12.7518C0.0639177 12.6245 0.121284 12.5049 0.200127 12.3998C0.27897 12.2948 0.377745 12.2063 0.490807 12.1394C0.603869 12.0725 0.729003 12.0285 0.859059 12.01H0.858559ZM21.9291 12.01C22.0591 12.0286 22.1842 12.0726 22.2973 12.1395C22.4103 12.2065 22.5091 12.2951 22.5879 12.4002C22.6667 12.5053 22.724 12.6249 22.7565 12.7522C22.7891 12.8795 22.7962 13.012 22.7776 13.142C22.648 14.0427 22.412 14.9249 22.0746 15.77C21.9727 16.0114 21.7802 16.2032 21.5384 16.3042C21.2966 16.4051 21.0249 16.4072 20.7816 16.3098C20.5383 16.2124 20.343 16.0235 20.2376 15.7836C20.1322 15.5437 20.1252 15.272 20.2181 15.027C20.4931 14.3405 20.6896 13.614 20.7976 12.8585C20.8161 12.7285 20.8601 12.6034 20.9271 12.4904C20.994 12.3774 21.0825 12.2787 21.1876 12.1999C21.2926 12.1211 21.4122 12.0638 21.5394 12.0312C21.6667 11.9986 21.799 11.9914 21.9291 12.01ZM2.51506 17.196C2.61833 17.1148 2.73659 17.0548 2.86307 17.0193C2.98956 16.9838 3.12179 16.9736 3.25222 16.9893C3.38265 17.0049 3.50872 17.0461 3.62322 17.1105C3.73773 17.1749 3.83842 17.2612 3.91956 17.3645C4.38672 17.9599 4.92336 18.4974 5.51806 18.9655C5.62118 19.0468 5.70727 19.1477 5.77142 19.2623C5.83557 19.3768 5.87653 19.5029 5.89194 19.6334C5.90736 19.7638 5.89693 19.896 5.86126 20.0224C5.82559 20.1488 5.76538 20.2669 5.68406 20.37C5.60274 20.4731 5.5019 20.5592 5.38731 20.6234C5.27272 20.6875 5.14661 20.7285 5.01619 20.7439C4.88577 20.7593 4.75359 20.7489 4.6272 20.7132C4.50081 20.6775 4.38268 20.6173 4.27956 20.536C3.56069 19.97 2.91194 19.3202 2.34706 18.6005C2.26584 18.4973 2.20576 18.379 2.17025 18.2526C2.13474 18.1261 2.12449 17.9939 2.14009 17.8634C2.15569 17.733 2.19684 17.6069 2.26118 17.4924C2.32551 17.3779 2.41178 17.2772 2.51506 17.196ZM20.2726 17.196C20.3759 17.2771 20.4622 17.3778 20.5266 17.4923C20.591 17.6068 20.6321 17.7329 20.6478 17.8633C20.6634 17.9938 20.6532 18.126 20.6178 18.2525C20.5823 18.379 20.5222 18.4972 20.4411 18.6005C19.8722 19.3252 19.2184 19.9788 18.4936 20.5475C18.3905 20.6308 18.272 20.6928 18.1448 20.7299C18.0176 20.767 17.8843 20.7785 17.7526 20.7636C17.6209 20.7487 17.4935 20.7078 17.3778 20.6433C17.2621 20.5788 17.1603 20.4919 17.0785 20.3877C16.9966 20.2835 16.9363 20.1641 16.901 20.0364C16.8657 19.9087 16.8561 19.7752 16.8728 19.6438C16.8895 19.5124 16.9322 19.3855 16.9983 19.2707C17.0644 19.1559 17.1527 19.0554 17.2581 18.975C17.8573 18.5048 18.3979 17.9643 18.8681 17.365C18.9492 17.2617 19.0498 17.1753 19.1643 17.1109C19.2788 17.0464 19.4049 17.0052 19.5353 16.9895C19.6657 16.9738 19.798 16.984 19.9245 17.0194C20.051 17.0548 20.1693 17.1148 20.2726 17.196ZM6.55156 20.873C6.60052 20.7511 6.67302 20.6401 6.76491 20.5462C6.8568 20.4524 6.96628 20.3775 7.08709 20.326C7.2079 20.2745 7.33769 20.2472 7.46903 20.2459C7.60037 20.2445 7.73069 20.269 7.85256 20.318C8.54356 20.596 9.27456 20.795 10.0356 20.904C10.1656 20.9226 10.2906 20.9667 10.4036 21.0336C10.5166 21.1006 10.6153 21.1891 10.6941 21.2942C10.7728 21.3993 10.8301 21.5189 10.8627 21.6461C10.8953 21.7733 10.9024 21.9057 10.8838 22.0357C10.8652 22.1658 10.8212 22.2908 10.7542 22.4038C10.6873 22.5168 10.5987 22.6155 10.4936 22.6943C10.3885 22.773 10.2689 22.8303 10.1417 22.8629C10.0145 22.8954 9.88207 22.9026 9.75206 22.884C8.84509 22.7536 7.95696 22.5152 7.10656 22.174C6.98468 22.125 6.87364 22.0525 6.77978 21.9606C6.68593 21.8688 6.61109 21.7593 6.55955 21.6385C6.50801 21.5177 6.48078 21.3879 6.47941 21.2565C6.47804 21.1252 6.50255 20.9949 6.55156 20.873ZM16.2216 20.881C16.2704 21.0029 16.2947 21.1333 16.2931 21.2646C16.2915 21.3959 16.264 21.5257 16.2123 21.6464C16.1606 21.7671 16.0856 21.8764 15.9916 21.9682C15.8976 22.0599 15.7865 22.1322 15.6646 22.181C14.8191 22.5184 13.9366 22.7542 13.0356 22.8835C12.9056 22.9021 12.7731 22.8949 12.6459 22.8624C12.5187 22.8298 12.3991 22.7725 12.294 22.6938C12.1889 22.615 12.1004 22.5163 12.0334 22.4033C11.9665 22.2903 11.9224 22.1653 11.9038 22.0352C11.8852 21.9052 11.8924 21.7728 11.9249 21.6456C11.9575 21.5184 12.0148 21.3988 12.0935 21.2937C12.1723 21.1886 12.271 21.1001 12.384 21.0331C12.497 20.9662 12.6221 20.9221 12.7521 20.9035C13.4954 20.7966 14.2235 20.6019 14.9211 20.3235C15.043 20.2747 15.1734 20.2504 15.3047 20.2521C15.4361 20.2537 15.5658 20.2812 15.6866 20.3329C15.8073 20.3847 15.9166 20.4598 16.0083 20.5538C16.1 20.6478 16.1728 20.759 16.2216 20.881Z" fill="#8FBFFA"/>
</svg>
