<svg width="36" height="36" viewBox="0 0 36 36" fill="none" xmlns="http://www.w3.org/2000/svg">
<rect width="36" height="36" rx="6" fill="#A4C2FF"/>
<path d="M18 28C20.7614 28 23 25.7614 23 23C23 21.3644 22.2147 19.9122 21.0005 19V11.0005C21.0005 10.0682 21.0005 9.60198 20.8481 9.23428C20.6451 8.74451 20.256 8.35537 19.7662 8.15239C19.3985 8 18.9323 8 18 8C17.0677 8 16.6015 8 16.2338 8.15239C15.744 8.35537 15.3549 8.74451 15.1519 9.23428C14.9995 9.60198 14.9995 10.0682 14.9995 11.0005V19C13.7853 19.9122 13 21.3644 13 23C13 25.7614 15.2386 28 18 28Z" stroke="#2E388E" stroke-width="1.5" stroke-linejoin="round"/>
<path d="M18 21C16.8954 21 16 21.8954 16 23C16 24.1046 16.8954 25 18 25C19.1046 25 20 24.1046 20 23C20 21.8954 19.1046 21 18 21ZM18 21V14" stroke="#2E388E" stroke-width="1.5" stroke-linejoin="round"/>
</svg>
