<svg width="16" height="16" viewBox="0 0 16 16" fill="none" xmlns="http://www.w3.org/2000/svg">
<path d="M8.00022 3.72277C8.00022 3.53611 8.00022 3.44355 8.06245 3.38599C8.12622 3.32844 8.21334 3.33544 8.38911 3.35022C9.17262 3.41566 9.9269 3.678 10.5819 4.11288C11.2369 4.54776 11.7714 5.14108 12.1359 5.83777C12.5003 6.53446 12.6827 7.31193 12.6663 8.09799C12.65 8.88406 12.4352 9.65324 12.0421 10.3341C11.649 11.015 11.0902 11.5855 10.4176 11.9927C9.745 12.3999 8.98044 12.6306 8.19489 12.6633C7.40933 12.696 6.62825 12.5297 5.92414 12.1799C5.22003 11.83 4.61573 11.3079 4.16734 10.6621C4.06622 10.5174 4.01645 10.4451 4.03511 10.3619C4.05378 10.2787 4.13467 10.2328 4.29567 10.1394L7.80578 8.11255C7.90067 8.05811 7.94811 8.03088 7.97378 7.98577C8.00022 7.94066 8.00022 7.88544 8.00022 7.77577V3.72277Z" fill="#444444" fill-opacity="0.8"/>
<path d="M8.5 3.86621C9.14465 3.94406 9.76352 4.16935 10.3057 4.5293C10.8903 4.91751 11.3671 5.44748 11.6924 6.06934C12.0177 6.69138 12.1807 7.38605 12.166 8.08789C12.1513 8.78953 11.9602 9.4762 11.6094 10.084C11.2584 10.6919 10.7587 11.2019 10.1582 11.5654C9.55781 11.9288 8.87503 12.1349 8.17383 12.1641C7.47253 12.1932 6.77507 12.0448 6.14648 11.7324C5.56354 11.4428 5.05871 11.0196 4.66895 10.5L8.05566 8.5459L8.05469 8.54492C8.09355 8.52263 8.15443 8.48903 8.20605 8.45215C8.26701 8.40858 8.34705 8.34074 8.4082 8.2334L8.40723 8.23242C8.46714 8.12786 8.48684 8.02735 8.49414 7.9541C8.50044 7.89059 8.5 7.82031 8.5 7.77539V3.86621Z" stroke="#444444" stroke-opacity="0.8"/>
<path d="M8 15C11.866 15 15 11.866 15 8C15 4.13401 11.866 1 8 1C4.13401 1 1 4.13401 1 8C1 11.866 4.13401 15 8 15Z" stroke="#444444" stroke-opacity="0.8" stroke-width="2"/>
</svg>
