<svg width="24" height="24" viewBox="0 0 24 24" fill="none" xmlns="http://www.w3.org/2000/svg">
<path d="M9.34286 3C9 1.3 7.62857 0 6 0C4.37143 0 3.08571 1.3 2.65714 3H0V5H2.65714C3 6.7 4.37143 8 6 8C7.62857 8 8.91429 6.7 9.34286 5H24V3H9.34286ZM6 6C5.05714 6 4.28571 5.1 4.28571 4C4.28571 2.9 5.05714 2 6 2C6.94286 2 7.71429 2.9 7.71429 4C7.71429 5.1 6.94286 6 6 6ZM18 8C16.3714 8 15.0857 9.3 14.6571 11H0V13H14.6571C15 14.7 16.3714 16 18 16C19.6286 16 20.9143 14.7 21.3429 13H24V11H21.3429C21 9.3 19.6286 8 18 8ZM18 14C17.0571 14 16.2857 13.1 16.2857 12C16.2857 10.9 17.0571 10 18 10C18.9429 10 19.7143 10.9 19.7143 12C19.7143 13.1 18.9429 14 18 14ZM10.2857 16C8.65714 16 7.37143 17.3 6.94286 19H0V21H6.94286C7.28571 22.7 8.65714 24 10.2857 24C11.9143 24 13.2 22.7 13.6286 21H24V19H13.6286C13.2857 17.3 11.9143 16 10.2857 16ZM10.2857 22C9.34286 22 8.57143 21.1 8.57143 20C8.57143 18.9 9.34286 18 10.2857 18C11.2286 18 12 18.9 12 20C12 21.1 11.2286 22 10.2857 22Z" fill="#444444"/>
</svg>
