<svg width="68" height="68" viewBox="0 0 68 68" fill="none" xmlns="http://www.w3.org/2000/svg">
<g filter="url(#filter0_d_2183_36)">
<rect x="4" width="60" height="60" rx="8" fill="#3E4CC1" shape-rendering="crispEdges"/>
<path d="M38.8004 27.2887C40.1259 27.2887 41.2004 26.2489 41.2004 24.9661C41.2004 23.6834 40.1259 22.6436 38.8004 22.6436C37.4749 22.6436 36.4004 23.6834 36.4004 24.9661C36.4004 26.2489 37.4749 27.2887 38.8004 27.2887Z" fill="white"/>
<path d="M22 36.5806L30.288 27.8292C30.0528 27.0968 30 26.5517 30 25.7419C30 24.2107 30.4692 22.7139 31.3482 21.4407C32.2273 20.1676 33.4767 19.1753 34.9385 18.5893C36.4003 18.0034 38.0089 17.85 39.5607 18.1488C41.1126 18.4475 42.538 19.1848 43.6569 20.2676C44.7757 21.3503 45.5376 22.7298 45.8463 24.2316C46.155 25.7334 45.9965 27.29 45.391 28.7046C44.7855 30.1193 43.7602 31.3284 42.4446 32.1791C41.129 33.0298 39.5822 33.4839 38 33.4839C37.1632 33.4839 36.6112 33.4684 35.8528 33.2392L33.2 35.8065H30V38.9032H26.8V42H22V36.5806Z" stroke="white" stroke-width="2" stroke-linecap="round" stroke-linejoin="round"/>
</g>
<defs>
<filter id="filter0_d_2183_36" x="0" y="0" width="68" height="68" filterUnits="userSpaceOnUse" color-interpolation-filters="sRGB">
<feFlood flood-opacity="0" result="BackgroundImageFix"/>
<feColorMatrix in="SourceAlpha" type="matrix" values="0 0 0 0 0 0 0 0 0 0 0 0 0 0 0 0 0 0 127 0" result="hardAlpha"/>
<feOffset dy="4"/>
<feGaussianBlur stdDeviation="2"/>
<feComposite in2="hardAlpha" operator="out"/>
<feColorMatrix type="matrix" values="0 0 0 0 0.0980392 0 0 0 0 0.113725 0 0 0 0 0.317647 0 0 0 1 0"/>
<feBlend mode="normal" in2="BackgroundImageFix" result="effect1_dropShadow_2183_36"/>
<feBlend mode="normal" in="SourceGraphic" in2="effect1_dropShadow_2183_36" result="shape"/>
</filter>
</defs>
</svg>
