<svg width="14" height="14" viewBox="0 0 14 14" fill="none" xmlns="http://www.w3.org/2000/svg">
<path d="M5.17773 0.5C6.49407 0.5 7.59112 0.950562 8.49902 1.85742C9.40665 2.76409 9.85692 3.86109 9.85547 5.17773L9.85156 5.375C9.83319 5.83089 9.75102 6.25937 9.60645 6.66211C9.43775 7.13198 9.21123 7.54065 8.92969 7.89258L8.65039 8.24219L13.4277 13.0195C13.4707 13.0626 13.5 13.1172 13.5 13.2236C13.4999 13.3301 13.4708 13.3847 13.4277 13.4277C13.3847 13.4708 13.3301 13.4999 13.2236 13.5C13.1172 13.5 13.0626 13.4707 13.0195 13.4277L8.24219 8.65039L7.89258 8.92969C7.54065 9.21123 7.13199 9.43775 6.66211 9.60645C6.2018 9.77168 5.7079 9.85547 5.17773 9.85547C3.86019 9.85545 2.76356 9.40467 1.85742 8.49805C0.951249 7.59131 0.500508 6.49475 0.5 5.17773C0.499517 3.86088 0.950204 2.76416 1.85742 1.85742C2.76476 0.950613 3.8614 0.500017 5.17773 0.5ZM5.17871 1.09277C4.05056 1.09157 3.07594 1.49242 2.28516 2.28613C1.49548 3.07882 1.09463 4.05199 1.09277 5.17676C1.09097 6.30291 1.4917 7.27784 2.28516 8.07129C3.07835 8.86447 4.05243 9.26385 5.17773 9.26172C6.30433 9.26172 7.27828 8.86255 8.07031 8.07129C8.86258 7.27962 9.26325 6.30509 9.2627 5.17773C9.26209 4.05073 8.86244 3.07631 8.07129 2.28516C7.28023 1.49409 6.30593 1.09406 5.17871 1.09277Z" fill="#444444" fill-opacity="0.72" stroke="black"/>
</svg>
