<svg width="162" height="190" viewBox="0 0 162 190" fill="none" xmlns="http://www.w3.org/2000/svg">

<!-- ROTATING ARC GROUP -->
<g>
  <animateTransform
    attributeName="transform"
    type="rotate"
    from="0 81 81"
    to="360 81 81"
    dur="1.8s"
    repeatCount="indefinite"/>

  <circle cx="94.5738" cy="18.409" r="13.5013" transform="rotate(-119.614 94.5738 18.409)" fill="#3E4CC1"/>
  <circle cx="121.574" cy="28.534" r="13.5013" transform="rotate(-119.614 121.574 28.534)" fill="url(#paint0_linear_2120_567)"/>
  <circle cx="140.6" cy="46.6383" r="10.126" transform="rotate(-119.614 140.6 46.6383)" fill="url(#paint1_linear_2120_567)"/>
  <circle cx="149.502" cy="64.7406" r="6.75063" transform="rotate(-119.614 149.502 64.7406)" fill="url(#paint2_linear_2120_567)"/>

  <g filter="url(#filter0_d_2120_567)">
    <circle cx="151.649" cy="79.4699" r="3.37532"
      transform="rotate(-119.614 151.649 79.4699)"
      fill="url(#paint3_linear_2120_567)"/>
  </g>
</g>

<!-- GV LOGO -->
<path d="M40 80.3049C44.1926 75.9024 55.792 64.178 68.6492 52.5L97.9971 81L91.0095 86.561L68.6492 65.0122L52.5777 81L67.9504 96.9878L74.2393 92.122L63.7579 81L69.348 76.1341L92.4071 98.378L116.864 75.439L121.056 81L92.4071 109.5L80.5281 99.7683L67.2517 109.5L40 80.3049Z"
  fill="#FB0D46"/>

<!-- LOADING TEXT -->
<text x="81" y="175"
      text-anchor="middle"
      fill="black"
      font-size="16"
      font-family="Arial, sans-serif"
      letter-spacing="1">

  Loading...
  
  <animate attributeName="opacity"
           values="0.4;1;0.4"
           dur="1.5s"
           repeatCount="indefinite"/>
</text>

<!-- DEFINITIONS -->
<defs>
<filter id="filter0_d_2120_567" x="144.273" y="72.0938" width="14.752" height="14.752" filterUnits="userSpaceOnUse" color-interpolation-filters="sRGB">
<feFlood flood-opacity="0" result="BackgroundImageFix"/>
<feColorMatrix in="SourceAlpha" type="matrix" values="0 0 0 0 0 0 0 0 0 0 0 0 0 0 0 0 0 0 127 0" result="hardAlpha"/>
<feOffset/>
<feGaussianBlur stdDeviation="2"/>
<feComposite in2="hardAlpha" operator="out"/>
<feColorMatrix type="matrix" values="0 0 0 0 0 0 0 0 0 0 0 0 0 0 0 0 0 0 0.25 0"/>
<feBlend mode="normal" in2="BackgroundImageFix" result="effect1_dropShadow_2120_567"/>
<feBlend mode="normal" in="SourceGraphic" in2="effect1_dropShadow_2120_567" result="shape"/>
</filter>
<linearGradient id="paint0_linear_2120_567" x1="132.551" y1="25.4841" x2="96.4173" y2="35.4276" gradientUnits="userSpaceOnUse">
<stop stop-color="#3E4CC1"/>
<stop offset="1" stop-color="white"/>
</linearGradient>
<linearGradient id="paint1_linear_2120_567" x1="150.726" y1="46.6383" x2="130.474" y2="46.6383" gradientUnits="userSpaceOnUse">
<stop stop-color="#3E4CC1"/>
<stop offset="1" stop-color="white"/>
</linearGradient>
<linearGradient id="paint2_linear_2120_567" x1="156.252" y1="64.7406" x2="142.751" y2="64.7406" gradientUnits="userSpaceOnUse">
<stop stop-color="#3E4CC1"/>
<stop offset="1" stop-color="white"/>
</linearGradient>
<linearGradient id="paint3_linear_2120_567" x1="155.025" y1="79.4699" x2="148.274" y2="79.4699" gradientUnits="userSpaceOnUse">
<stop stop-color="#3E4CC1"/>
<stop offset="1" stop-color="white"/>
</linearGradient>
</defs>


</svg>