<svg width="36" height="36" viewBox="0 0 36 36" fill="none" xmlns="http://www.w3.org/2000/svg">
<rect width="36" height="36" rx="6" fill="#A4C2FF"/>
<path d="M10.318 25.682C9 24.364 9 22.2426 9 18C9 13.7574 9 11.636 10.318 10.318C11.636 9 13.7574 9 18 9C22.2426 9 24.364 9 25.682 10.318C27 11.636 27 13.7574 27 18C27 22.2426 27 24.364 25.682 25.682C24.364 27 22.2426 27 18 27C13.7574 27 11.636 27 10.318 25.682Z" stroke="#2E388E" stroke-width="1.5" stroke-linecap="round" stroke-linejoin="round"/>
<path d="M12 18H14.5L16.5 14L19.5 22L21.5 18H24" stroke="#2E388E" stroke-width="1.5" stroke-linecap="round" stroke-linejoin="round"/>
</svg>
