<svg width="20" height="22" viewBox="0 0 20 22" fill="none" xmlns="http://www.w3.org/2000/svg">
<path d="M10.5912 21.1139L10.5802 21.1159L10.5092 21.1509L10.4892 21.1549L10.4752 21.1509L10.4042 21.1159C10.3936 21.1126 10.3856 21.1142 10.3802 21.1209L10.3762 21.1309L10.3592 21.5589L10.3642 21.5789L10.3742 21.5919L10.4782 21.6659L10.4932 21.6699L10.5052 21.6659L10.6092 21.5919L10.6212 21.5759L10.6252 21.5589L10.6082 21.1319C10.6056 21.1212 10.5999 21.1152 10.5912 21.1139ZM10.8562 21.0009L10.8432 21.0029L10.6582 21.0959L10.6482 21.1059L10.6452 21.1169L10.6632 21.5469L10.6682 21.5589L10.6762 21.5659L10.8772 21.6589C10.8899 21.6622 10.8996 21.6596 10.9062 21.6509L10.9102 21.6369L10.8762 21.0229C10.8729 21.0109 10.8662 21.0036 10.8562 21.0009ZM10.1412 21.0029C10.1368 21.0002 10.1315 20.9994 10.1265 21.0005C10.1215 21.0016 10.1171 21.0046 10.1142 21.0089L10.1082 21.0229L10.0742 21.6369C10.0749 21.6489 10.0806 21.6569 10.0912 21.6609L10.1062 21.6589L10.3072 21.5659L10.3172 21.5579L10.3212 21.5469L10.3382 21.1169L10.3352 21.1049L10.3252 21.0949L10.1412 21.0029Z" fill="#444444" fill-opacity="0.8"/>
<path d="M13 0C13.2652 0 13.5196 0.105357 13.7071 0.292893C13.8946 0.48043 14 0.734784 14 1V2H15C15.7956 2 16.5587 2.31607 17.1213 2.87868C17.6839 3.44129 18 4.20435 18 5V6H19C19.2652 6 19.5196 6.10536 19.7071 6.29289C19.8946 6.48043 20 6.73478 20 7C20 7.26522 19.8946 7.51957 19.7071 7.70711C19.5196 7.89464 19.2652 8 19 8H18V12H19C19.2652 12 19.5196 12.1054 19.7071 12.2929C19.8946 12.4804 20 12.7348 20 13C20 13.2652 19.8946 13.5196 19.7071 13.7071C19.5196 13.8946 19.2652 14 19 14H18V15C18 15.7956 17.6839 16.5587 17.1213 17.1213C16.5587 17.6839 15.7956 18 15 18H14V19C14 19.2652 13.8946 19.5196 13.7071 19.7071C13.5196 19.8946 13.2652 20 13 20C12.7348 20 12.4804 19.8946 12.2929 19.7071C12.1054 19.5196 12 19.2652 12 19V18H8V19C8 19.2652 7.89464 19.5196 7.70711 19.7071C7.51957 19.8946 7.26522 20 7 20C6.73478 20 6.48043 19.8946 6.29289 19.7071C6.10536 19.5196 6 19.2652 6 19V18H5C4.20435 18 3.44129 17.6839 2.87868 17.1213C2.31607 16.5587 2 15.7956 2 15V14H1C0.734784 14 0.48043 13.8946 0.292893 13.7071C0.105357 13.5196 0 13.2652 0 13C0 12.7348 0.105357 12.4804 0.292893 12.2929C0.48043 12.1054 0.734784 12 1 12H2V8H1C0.734784 8 0.48043 7.89464 0.292893 7.70711C0.105357 7.51957 0 7.26522 0 7C0 6.73478 0.105357 6.48043 0.292893 6.29289C0.48043 6.10536 0.734784 6 1 6H2V5C2 4.20435 2.31607 3.44129 2.87868 2.87868C3.44129 2.31607 4.20435 2 5 2H6V1C6 0.734784 6.10536 0.48043 6.29289 0.292893C6.48043 0.105357 6.73478 0 7 0C7.26522 0 7.51957 0.105357 7.70711 0.292893C7.89464 0.48043 8 0.734784 8 1V2H12V1C12 0.734784 12.1054 0.48043 12.2929 0.292893C12.4804 0.105357 12.7348 0 13 0ZM12 6H8C7.46957 6 6.96086 6.21071 6.58579 6.58579C6.21071 6.96086 6 7.46957 6 8V12C6 12.5304 6.21071 13.0391 6.58579 13.4142C6.96086 13.7893 7.46957 14 8 14H12C12.5304 14 13.0391 13.7893 13.4142 13.4142C13.7893 13.0391 14 12.5304 14 12V8C14 7.46957 13.7893 6.96086 13.4142 6.58579C13.0391 6.21071 12.5304 6 12 6ZM12 8V12H8V8H12Z" fill="#444444" fill-opacity="0.8"/>
</svg>
