<svg width="10" height="10" viewBox="0 0 10 10" fill="none" xmlns="http://www.w3.org/2000/svg">
<path fill-rule="evenodd" clip-rule="evenodd" d="M10 4.45903V4.99999C10 6.79262 8.5076 8.24581 6.66667 8.24581H2.54815L3.56346 9.23495L2.77779 10L0.420755 7.70485L2.77779 5.4097L3.56346 6.17475L2.54815 7.16386H6.66667C7.88169 7.16386 8.86896 6.21436 8.88859 5.03577L8.88888 5.00001V4.45903H10ZM7.22221 0L9.57924 2.29515L7.22221 4.5903L6.43654 3.82525L7.45182 2.83611H3.33333C2.11831 2.83611 1.13104 3.78564 1.11141 4.96421L1.11112 4.99999L1.11109 5.54095H0V4.99999C0 3.22531 1.46268 1.78328 3.2782 1.7546L3.33333 1.75416H7.45185L6.43654 0.765051L7.22221 0Z" fill="#4C4A4A"/>
</svg>
