<svg width="36" height="36" viewBox="0 0 36 36" fill="none" xmlns="http://www.w3.org/2000/svg">
<rect width="36" height="36" rx="6" fill="#A4C2FF"/>
<path d="M8 18C8 15.1716 8 13.7574 8.87868 12.8787C9.75736 12 11.1716 12 14 12H19C21.8284 12 23.2426 12 24.1213 12.8787C25 13.7574 25 15.1716 25 18C25 20.8284 25 22.2426 24.1213 23.1213C23.2426 24 21.8284 24 19 24H14C11.1716 24 9.75736 24 8.87868 23.1213C8 22.2426 8 20.8284 8 18Z" stroke="#2E388E" stroke-width="1.5" stroke-linecap="round"/>
<path d="M16.8282 15L15.0857 17.1749C14.899 17.4079 15.0328 17.7433 15.3373 17.8053L17.1627 18.1773C17.4873 18.2434 17.6111 18.6147 17.3842 18.8413L15.2222 21" stroke="#2E388E" stroke-width="1.5" stroke-linecap="round"/>
<path d="M25 15.5L26.0272 15.6712C26.7085 15.7847 27.0491 15.8415 27.3076 16.0067C27.5618 16.1691 27.7612 16.4044 27.8796 16.6819C28 16.964 28 17.3093 28 18C28 18.6907 28 19.036 27.8796 19.3181C27.7612 19.5956 27.5618 19.8309 27.3076 19.9933C27.0491 20.1585 26.7085 20.2153 26.0272 20.3288L25 20.5" stroke="#2E388E" stroke-width="1.5" stroke-linecap="round"/>
</svg>
