<svg width="6" height="16" viewBox="0 0 6 16" fill="none" xmlns="http://www.w3.org/2000/svg">
<path d="M3 1.32415C2.67744 1.32415 2.36809 1.49854 2.14001 1.80895C1.91192 2.11936 1.78378 2.54036 1.78378 2.97935V9.69149L1.62681 9.8879C1.32665 10.264 1.11688 10.7547 1.02494 11.2957C0.933001 11.8367 0.963176 12.4029 1.11152 12.9202C1.25986 13.4375 1.51946 13.8819 1.85637 14.1951C2.19328 14.5084 2.59181 14.676 2.99984 14.676C3.40787 14.676 3.8064 14.5084 4.14331 14.1951C4.48021 13.8819 4.73982 13.4375 4.88816 12.9202C5.0365 12.4029 5.06668 11.8367 4.97474 11.2957C4.8828 10.7547 4.67303 10.264 4.37286 9.8879L4.21622 9.69149V2.97935C4.21622 2.54036 4.08808 2.11936 3.85999 1.80895C3.63191 1.49854 3.32256 1.32415 3 1.32415ZM0.810812 2.97935C0.810812 2.18918 1.04146 1.43137 1.45201 0.872631C1.86256 0.313895 2.41939 0 3 0C3.58061 0 4.13744 0.313895 4.54799 0.872631C4.95854 1.43137 5.18919 2.18918 5.18919 2.97935V9.12563C5.5892 9.70664 5.85565 10.4341 5.95576 11.2186C6.05586 12.003 5.98524 12.8102 5.7526 13.5408C5.51996 14.2713 5.13544 14.8933 4.64637 15.3303C4.1573 15.7672 3.58504 16 3 16C2.41496 16 1.8427 15.7672 1.35363 15.3303C0.864564 14.8933 0.480045 14.2713 0.247401 13.5408C0.0147568 12.8102 -0.0558594 12.003 0.0442443 11.2186C0.144348 10.4341 0.410803 9.70664 0.810812 9.12563V2.97935ZM4.2973 11.9174C4.29718 12.2377 4.23305 12.5519 4.11176 12.8264C3.99047 13.1009 3.81659 13.3253 3.60876 13.4756C3.40092 13.6259 3.16696 13.6965 2.93193 13.6797C2.69689 13.6628 2.46965 13.5593 2.27453 13.3802C2.07942 13.2011 1.92378 12.9531 1.8243 12.6628C1.72481 12.3726 1.68523 12.0509 1.70978 11.7324C1.73434 11.4138 1.82211 11.1103 1.96369 10.8545C2.10527 10.5986 2.29533 10.4 2.51351 10.2799V5.51731C2.51351 5.34172 2.56477 5.17331 2.656 5.04915C2.74724 4.92499 2.87098 4.85523 3 4.85523C3.12902 4.85523 3.25276 4.92499 3.344 5.04915C3.43523 5.17331 3.48649 5.34172 3.48649 5.51731V10.2799C3.72614 10.4118 3.93137 10.6382 4.07583 10.9299C4.2203 11.2217 4.29742 11.5656 4.2973 11.9174Z" fill="#C0002E"/>
</svg>
